<?xml version="1.0" encoding="UTF-8" standalone="no"?>
<svg
   xmlns:dc="http://purl.org/dc/elements/1.1/"
   xmlns:cc="http://creativecommons.org/ns#"
   xmlns:rdf="http://www.w3.org/1999/02/22-rdf-syntax-ns#"
   xmlns:svg="http://www.w3.org/2000/svg"
   xmlns="http://www.w3.org/2000/svg"
   xmlns:sodipodi="http://sodipodi.sourceforge.net/DTD/sodipodi-0.dtd"
   xmlns:inkscape="http://www.inkscape.org/namespaces/inkscape"
   width="256pt"
   height="256pt"
   viewBox="0 0 256 256"
   version="1.1"
   id="svg9"
   sodipodi:docname="base.svg"
   inkscape:version="1.0.2 (e86c870879, 2021-01-15, custom)">
  <metadata
     id="metadata15">
    <rdf:RDF>
      <cc:Work
         rdf:about="">
        <dc:format>image/svg+xml</dc:format>
        <dc:type
           rdf:resource="http://purl.org/dc/dcmitype/StillImage" />
        <dc:title></dc:title>
      </cc:Work>
    </rdf:RDF>
  </metadata>
  <defs
     id="defs13" />
  <sodipodi:namedview
     pagecolor="#ffffff"
     bordercolor="#666666"
     borderopacity="1"
     objecttolerance="10"
     gridtolerance="10"
     guidetolerance="10"
     inkscape:pageopacity="0"
     inkscape:pageshadow="2"
     inkscape:window-width="3840"
     inkscape:window-height="2066"
     id="namedview11"
     showgrid="false"
     inkscape:zoom="1.4765625"
     inkscape:cx="-140.4571"
     inkscape:cy="310.64346"
     inkscape:window-x="2869"
     inkscape:window-y="-11"
     inkscape:window-maximized="1"
     inkscape:current-layer="svg9"
     inkscape:document-rotation="0" />
  <path
     style="fill:#e2e8e7;fill-opacity:1;fill-rule:nonzero;stroke:none"
     d="m 128.12891,-0.164062 c -34.421879,0 -66.050785,13.121093 -90.445316,37.523437 C 13.289062,61.765625 0.171875,93.40625 0.171875,127.84375 c 0,34.4375 13.117187,66.07812 37.511719,90.48047 20.484375,20.49219 46.089844,33.03125 75.062496,36.76172 11.37891,1.46875 28.82032,0.72265 41.25391,-1.75391 44.76172,-8.92187 83.00391,-43.60547 96.40625,-87.4375 14.0625,-45.98437 2.00391,-94.687499 -31.82813,-128.535155 C 194.18359,12.957031 162.55469,-0.164062 128.12891,-0.164062 Z M 126.96484,9.875 c 18.51953,-0.167969 37.02344,4.027344 53.89063,12.480469 23.11328,11.585937 41.14062,29.617187 52.72265,52.742187 16.64454,33.242184 16.64454,72.250004 0,105.488284 -5.80859,11.60156 -11.59765,19.7539 -20.8125,29.33203 -19.5039,20.26953 -45.32812,32.625 -74.04687,35.43359 -21.42187,2.09375 -43.527344,-2.10547 -63.3125,-12.01953 C 63.8125,227.51953 55.660156,221.73047 46.085938,212.51172 9.15625,176.94531 -0.355469,121.10156 22.683594,75.097656 36.53125,47.445312 60.320312,26.527344 89.457031,16.382812 101.61719,12.148438 114.29688,9.988281 126.96484,9.875 Z m 0,0"
     id="path2" />
  <g
     id="g972"
     transform="matrix(1.171704,0,0,1.171704,-312.31487,26.264738)">
    <rect
       x="308.19171"
       y="48.601162"
       width="19.657669"
       height="19.657669"
       fill="#00abcd"
       id="rect845"
       style="stroke-width:1.31051" />
    <rect
       x="332.49777"
       y="48.601162"
       width="19.657669"
       height="19.657669"
       fill="#00b3a0"
       id="rect847"
       style="stroke-width:1.31051" />
    <rect
       x="356.8038"
       y="48.601162"
       width="19.657669"
       height="19.657669"
       fill="#f6c574"
       id="rect849"
       style="stroke-width:1.31051" />
    <rect
       x="381.10855"
       y="48.601162"
       width="19.657669"
       height="19.657669"
       fill="#e2e8e7"
       id="rect851"
       style="stroke-width:1.31051" />
    <rect
       x="405.41855"
       y="48.601162"
       width="19.657669"
       height="19.657669"
       fill="#fc5652"
       id="rect853"
       style="stroke-width:1.31051" />
    <rect
       x="429.72852"
       y="48.601162"
       width="19.657669"
       height="19.657669"
       fill="#f6c574"
       id="rect855"
       style="stroke-width:1.31051" />
    <rect
       x="308.19171"
       y="73.030403"
       width="19.657669"
       height="19.657669"
       fill="#e2e8e7"
       id="rect857"
       style="stroke-width:1.31051" />
    <rect
       x="332.49908"
       y="73.030403"
       width="19.657669"
       height="19.657669"
       fill="#00b39f"
       id="rect859"
       style="stroke-width:1.31051" />
    <rect
       x="381.10855"
       y="73.030403"
       width="19.657669"
       height="19.657669"
       fill="#00b39f"
       id="rect861"
       style="stroke-width:1.31051" />
    <rect
       x="405.41855"
       y="73.030403"
       width="19.657669"
       height="19.657669"
       fill="#00b3a0"
       id="rect863"
       style="stroke-width:1.31051" />
    <rect
       x="429.72852"
       y="73.030403"
       width="19.657669"
       height="19.657669"
       fill="#e2e8e7"
       id="rect865"
       style="stroke-width:1.31051" />
    <rect
       x="308.19171"
       y="97.471443"
       width="19.657669"
       height="19.657669"
       fill="#fc5652"
       id="rect867"
       style="stroke-width:1.31051" />
    <rect
       x="332.49908"
       y="97.471443"
       width="19.657669"
       height="19.657669"
       fill="#e2e8e7"
       id="rect869"
       style="stroke-width:1.31051" />
    <rect
       x="356.80511"
       y="97.471443"
       width="19.657669"
       height="19.657669"
       fill="#fc5652"
       id="rect871"
       style="stroke-width:1.31051" />
    <rect
       x="381.10855"
       y="97.471443"
       width="19.657669"
       height="19.657669"
       fill="#e2e8e7"
       id="rect873"
       style="stroke-width:1.31051" />
    <rect
       x="405.41855"
       y="97.471443"
       width="19.657669"
       height="19.657669"
       fill="#f6c574"
       id="rect875"
       style="stroke-width:1.31051" />
    <rect
       x="429.72852"
       y="97.471443"
       width="19.657669"
       height="19.657669"
       fill="#f6c574"
       id="rect877"
       style="stroke-width:1.31051" />
    <path
       d="m 356.7907,82.911656 v -9.71967 h 19.61443 V 92.6308 H 356.7907 Z"
       fill="#00abcd"
       id="path879"
       style="stroke-width:1.31051" />
  </g>
</svg>
