<?xml version="1.0" encoding="UTF-8"?>
<svg width="156.3mm" height="156.3mm" version="1.1" viewBox="0 0 156.3 156.3"
    xmlns="http://www.w3.org/2000/svg">
    <g transform="translate(-22.175 -42.147)">
        <rect x="22.175" y="42.147" width="156.3" height="156.3" fill="#f9f9f9"/>
    </g>
    <g transform="translate(-22.175 -42.147)">
        <rect x="46.28" y="87.759" width="15" height="15" fill="#00abcd"/>
        <rect x="64.827" y="87.759" width="15" height="15" fill="#00b3a0"/>
        <rect x="83.374" y="87.759" width="15" height="15" fill="#f6c574"/>
        <rect x="101.92" y="87.759" width="15" height="15" fill="#e2e8e7"/>
        <rect x="120.47" y="87.759" width="15" height="15" fill="#fc5652"/>
        <rect x="139.02" y="87.759" width="15" height="15" fill="#f6c574"/>
        <rect x="46.28" y="106.4" width="15" height="15" fill="#e2e8e7"/>
        <rect x="64.828" y="106.4" width="15" height="15" fill="#00b39f"/>
        <rect x="101.92" y="106.4" width="15" height="15" fill="#00b39f"/>
        <rect x="120.47" y="106.4" width="15" height="15" fill="#00b3a0"/>
        <rect x="139.02" y="106.4" width="15" height="15" fill="#e2e8e7"/>
        <rect x="46.28" y="125.05" width="15" height="15" fill="#fc5652"/>
        <rect x="64.828" y="125.05" width="15" height="15" fill="#e2e8e7"/>
        <rect x="83.375" y="125.05" width="15" height="15" fill="#fc5652"/>
        <rect x="101.92" y="125.05" width="15" height="15" fill="#e2e8e7"/>
        <rect x="120.47" y="125.05" width="15" height="15" fill="#f6c574"/>
        <rect x="139.02" y="125.05" width="15" height="15" fill="#f6c574"/>
        <path d="m83.364 113.94v-7.4167h14.967v14.833h-14.967z" fill="#00abcd"/>
    </g>
</svg>
