<?xml version="1.0" encoding="UTF-8"?>
<svg xmlns="http://www.w3.org/2000/svg" xmlns:xlink="http://www.w3.org/1999/xlink" width="256pt" height="256pt" viewBox="0 0 256 256" version="1.1">
<g id="surface1">
<path style=" stroke:none;fill-rule:nonzero;fill:#ccffff;fill-opacity:1;" d="M 127.976562 0.03125 C 93.605469 0.03125 62.03125 13.128906 37.671875 37.484375 C 13.316406 61.839844 0.21875 93.417969 0.21875 127.789062 C 0.21875 162.160156 13.316406 193.734375 37.671875 218.089844 C 58.125 238.542969 83.6875 251.058594 112.617188 254.78125 C 123.976562 256.246094 141.390625 255.503906 153.804688 253.03125 C 198.496094 244.125 236.679688 209.507812 250.0625 165.765625 C 264.101562 119.871094 252.058594 71.261719 218.28125 37.484375 C 193.921875 13.128906 162.347656 0.03125 127.976562 0.03125 Z M 126.8125 10.050781 C 145.300781 9.882812 163.777344 14.070312 180.617188 22.507812 C 203.695312 34.070312 221.695312 52.066406 233.257812 75.148438 C 249.878906 108.324219 249.878906 147.253906 233.257812 180.429688 C 227.457031 192.003906 221.679688 200.144531 212.476562 209.703125 C 193.003906 229.929688 167.222656 242.261719 138.546875 245.0625 C 117.160156 247.152344 95.089844 242.964844 75.335938 233.066406 C 63.757812 227.269531 55.621094 221.492188 46.0625 212.289062 C 9.191406 176.796875 -0.304688 121.058594 22.695312 75.148438 C 36.523438 47.550781 60.273438 26.671875 89.363281 16.546875 C 101.507812 12.320312 114.164062 10.167969 126.8125 10.050781 Z M 126.8125 10.050781 "/>
<path style=" stroke:none;fill-rule:nonzero;fill:#ccffff;fill-opacity:1;" d="M 187.1875 52.507812 L 114.242188 52.507812 C 107.882812 52.507812 102.757812 57.632812 102.757812 63.988281 L 102.757812 99.492188 L 67.078125 99.492188 C 60.722656 99.492188 55.597656 104.613281 55.597656 110.972656 L 55.597656 183.921875 C 55.597656 190.28125 60.722656 195.402344 67.078125 195.402344 L 140.207031 195.402344 C 146.5625 195.402344 151.6875 190.28125 151.6875 183.921875 L 151.6875 148.417969 L 187.1875 148.417969 C 193.546875 148.417969 198.671875 143.296875 198.671875 136.9375 L 198.671875 63.988281 C 198.671875 57.632812 193.546875 52.507812 187.1875 52.507812 Z M 140.027344 99.492188 L 130.136719 99.492188 L 130.136719 80.0625 L 171.117188 80.0625 L 171.117188 121.042969 L 151.507812 121.042969 L 151.507812 110.972656 C 151.507812 104.613281 146.386719 99.492188 140.027344 99.492188 Z M 114.242188 148.417969 L 124.132812 148.417969 L 124.132812 167.847656 L 83.152344 167.847656 L 83.152344 126.871094 L 102.9375 126.871094 L 102.9375 136.9375 C 102.757812 143.296875 107.882812 148.417969 114.242188 148.417969 Z M 144.972656 183.921875 C 144.972656 186.570312 142.855469 188.867188 140.027344 188.867188 L 67.078125 188.867188 C 64.429688 188.867188 62.132812 186.75 62.132812 183.921875 L 62.132812 110.796875 C 62.132812 108.148438 64.253906 105.851562 67.078125 105.851562 L 102.9375 105.851562 L 102.9375 120.335938 L 82.800781 120.335938 C 79.265625 120.335938 76.617188 123.160156 76.617188 126.515625 L 76.617188 168.027344 C 76.617188 171.558594 79.445312 174.207031 82.800781 174.207031 L 124.308594 174.207031 C 127.839844 174.207031 130.492188 171.382812 130.492188 168.027344 L 130.492188 105.851562 L 140.027344 105.851562 C 142.679688 105.851562 144.972656 107.972656 144.972656 110.796875 Z M 192.132812 136.9375 C 192.132812 139.589844 190.015625 141.882812 187.1875 141.882812 L 151.507812 141.882812 L 151.507812 127.402344 L 171.46875 127.402344 C 175 127.402344 177.652344 124.574219 177.652344 121.21875 L 177.652344 79.710938 C 177.652344 76.175781 174.824219 73.527344 171.46875 73.527344 L 129.960938 73.527344 C 126.429688 73.527344 123.777344 76.355469 123.777344 79.710938 L 123.777344 121.21875 C 123.777344 121.925781 123.953125 122.453125 124.132812 123.160156 L 124.132812 141.882812 L 114.242188 141.882812 C 111.589844 141.882812 109.292969 139.765625 109.292969 136.9375 L 109.292969 63.988281 C 109.292969 61.339844 111.414062 59.042969 114.242188 59.042969 L 187.1875 59.042969 C 189.839844 59.042969 192.132812 61.164062 192.132812 63.988281 Z M 192.132812 136.9375 "/>
</g>
</svg>
